<svg width="112" height="48" viewBox="0 0 112 48" fill="none" xmlns="http://www.w3.org/2000/svg">
<rect x="0.5" y="0.5" width="47" height="47" rx="23.5" stroke="white" stroke-opacity="0.295743"/>
<path fill-rule="evenodd" clip-rule="evenodd" d="M31 23.9997C31 23.7235 30.7761 23.4997 30.5 23.4997H18.707L21.854 20.3537C21.9805 20.2272 22.0299 20.0429 21.9836 19.8701C21.9373 19.6973 21.8023 19.5624 21.6296 19.5161C21.4568 19.4698 21.2725 19.5192 21.146 19.6457L17.146 23.6457C17.052 23.7395 16.9991 23.8668 16.9991 23.9997C16.9991 24.1325 17.052 24.2599 17.146 24.3537L21.146 28.3537C21.2725 28.4801 21.4568 28.5295 21.6296 28.4832C21.8023 28.4369 21.9373 28.302 21.9836 28.1292C22.0299 27.9565 21.9805 27.7721 21.854 27.6457L18.707 24.4997H30.5C30.7761 24.4997 31 24.2758 31 23.9997Z" fill="white"/>
<rect x="64.5" y="0.5" width="47" height="47" rx="23.5" stroke="white" stroke-opacity="0.295743"/>
<path fill-rule="evenodd" clip-rule="evenodd" d="M81 23.9997C81 23.7235 81.2239 23.4997 81.5 23.4997H93.293L90.146 20.3537C89.9505 20.1581 89.9505 19.8412 90.146 19.6457C90.3415 19.4501 90.6585 19.4501 90.854 19.6457L94.854 23.6457C94.948 23.7395 95.0009 23.8668 95.0009 23.9997C95.0009 24.1325 94.948 24.2599 94.854 24.3537L90.854 28.3537C90.6585 28.5492 90.3415 28.5492 90.146 28.3537C89.9505 28.1581 89.9505 27.8412 90.146 27.6457L93.293 24.4997H81.5C81.2239 24.4997 81 24.2758 81 23.9997Z" fill="white"/>
</svg>
