<svg width="160" height="48" viewBox="0 0 160 48" fill="none" xmlns="http://www.w3.org/2000/svg">
<circle cx="136" cy="24" r="24" fill="#EF6D58"/>
<path d="M136 16C138.173 16 138.445 16.0098 139.3 16.0498C142.206 16.1818 143.821 17.7986 143.952 20.7012C143.991 21.5558 144 21.828 144 24C144 26.1733 143.991 26.4455 143.952 27.2988C143.821 30.2067 142.201 31.8188 139.3 31.9521C138.445 31.9908 138.173 32 136 32C133.827 32 133.556 31.9908 132.701 31.9521C129.795 31.8188 128.181 30.204 128.048 27.2988C128.009 26.4455 128 26.1733 128 24C128 21.828 128.009 21.5558 128.048 20.7012C128.181 17.7947 129.795 16.1832 132.701 16.0498C133.342 16.0198 133.655 16.0065 134.688 16.002L136 16ZM136 17.4424C133.864 17.4424 133.61 17.4496 132.768 17.4883C130.597 17.5871 129.587 18.6147 129.488 20.7676C129.451 21.6102 129.441 21.864 129.441 24C129.441 26.136 129.451 26.3898 129.488 27.2324C129.588 29.38 130.595 30.4116 132.768 30.5117C133.61 30.5504 133.864 30.5586 136 30.5586C138.137 30.5586 138.389 30.5491 139.233 30.5117C141.404 30.413 142.414 29.3828 142.514 27.2324C142.551 26.3898 142.559 26.136 142.559 24C142.559 21.864 142.551 21.6116 142.514 20.7676C142.414 18.6159 141.403 17.5879 139.233 17.4893C138.389 17.4506 138.136 17.4424 136 17.4424ZM136 19.8916C138.268 19.8916 140.108 21.732 140.108 24C140.108 26.2693 138.268 28.1084 136 28.1084C133.732 28.1084 131.892 26.2693 131.892 24C131.892 21.7307 133.732 19.8916 136 19.8916ZM136 21.333C134.527 21.333 133.333 22.528 133.333 24C133.333 25.4733 134.527 26.667 136 26.667C137.472 26.667 138.668 25.4733 138.668 24C138.668 22.5267 137.472 21.333 136 21.333ZM140.27 18.7705C140.801 18.7706 141.23 19.2 141.23 19.7305C141.23 20.2611 140.8 20.6903 140.27 20.6904C139.739 20.6904 139.31 20.2598 139.31 19.7305C139.31 19.1999 139.74 18.7705 140.27 18.7705Z" fill="white"/>
<circle cx="80" cy="24" r="24" fill="#EF6D58"/>
<path d="M88 19.54C87.412 19.8013 86.7787 19.9773 86.1147 20.0573C86.7933 19.6507 87.312 19.008 87.5587 18.2413C86.924 18.6173 86.2213 18.8907 85.4733 19.0373C84.876 18.3987 84.0213 18 83.0787 18C80.9587 18 79.4013 19.9773 79.88 22.0307C77.1533 21.8933 74.7333 20.5867 73.1147 18.6013C72.2547 20.076 72.6693 22.0067 74.1307 22.984C73.5933 22.9667 73.088 22.8187 72.6453 22.5733C72.6093 24.0933 73.7 25.516 75.2787 25.8333C74.8173 25.9587 74.3107 25.988 73.796 25.8893C74.2133 27.1933 75.428 28.1413 76.8627 28.168C75.48 29.2507 73.7427 29.7347 72 29.5293C73.4533 30.4613 75.1773 31.004 77.0307 31.004C83.1267 31.004 86.5693 25.856 86.3613 21.2387C87.004 20.7773 87.56 20.1987 88 19.54Z" fill="white"/>
<circle cx="24" cy="24" r="24" fill="#EF6D58"/>
<path d="M21.6667 21.3333H19V24H21.6667V32H25.6667V24H28.0933L28.3333 21.3333H25.6667V20.2227C25.6667 19.5853 25.7947 19.3333 26.4107 19.3333H28.3333V16H25.128C22.7307 16 21.6667 17.056 21.6667 19.0773V21.3333Z" fill="white"/>
</svg>
